<svg xmlns="http://www.w3.org/2000/svg" width="16" height="12" viewBox="0 0 16 12">
    <g fill="none" fill-rule="evenodd" transform="translate(-1038 -2523)">
        <path fill="#FDFEFE" d="M0 0h1440v6819H0z"/>
        <path fill="#F7F8FA" fill-rule="nonzero" d="M1002 2205h296v432h-296z"/>
        <rect width="264" height="52" x="1018" y="2501" fill="#FFF" stroke="#C4C4C4" rx="4"/>
        <path fill="#828278" fill-rule="nonzero" d="M1047.457 2529.375l5.283 4.486c.22.186.172.339-.108.339h-13.264c-.278 0-.33-.152-.108-.34l5.283-4.485a.21.21 0 0 1 .264-.002l.124.104c.59.496 1.548.496 2.138 0l.124-.104a.213.213 0 0 1 .264.002zm5.168-6.375c.28 0 .328.151.109.335l-5.933 4.985c-.442.371-1.16.371-1.602 0l-5.933-4.985c-.22-.185-.169-.335.11-.335h13.249zm-4.212 5.798c-.147-.125-.15-.324 0-.45l5.185-4.356c.222-.187.402-.094.402.2v8.811c0 .298-.178.388-.398.201l-5.19-4.406zm-10.413-4.606c0-.297.182-.386.402-.2l5.185 4.356a.283.283 0 0 1 0 .45l-5.19 4.406c-.219.187-.397.094-.397-.2v-8.812z"/>
    </g>
</svg>
